<svg data-v-423bf9ae="" xmlns="http://www.w3.org/2000/svg" viewBox="0 0 333 112" class="iconLeftSlogan"><!----><!----><!----><g data-v-423bf9ae="" id="4bab5db8-d577-44f3-8782-46c01ee02e48" fill="#DDBA2E" transform="matrix(6.493506654355598,0,0,6.493506654355598,117.6412606956051,-29.480519963066797)"><path d="M0.45 13.78L1.64 13.78L2.52 10.95L5.85 10.95L6.72 13.78L7.95 13.78L4.86 4.54L3.54 4.54ZM2.81 10.01L3.25 8.60C3.57 7.56 3.86 6.57 4.16 5.49L4.21 5.49C4.51 6.57 4.80 7.56 5.12 8.60L5.56 10.01ZM10.28 13.78L15.97 13.78L15.97 12.78L11.42 12.78L11.42 4.54L10.28 4.54ZM17.25 13.78L18.44 13.78L19.32 10.95L22.65 10.95L23.52 13.78L24.75 13.78L21.66 4.54L20.34 4.54ZM19.61 10.01L20.05 8.60C20.37 7.56 20.66 6.57 20.96 5.49L21.01 5.49C21.31 6.57 21.60 7.56 21.92 8.60L22.36 10.01ZM25.65 13.78L26.84 13.78L27.72 10.95L31.05 10.95L31.92 13.78L33.15 13.78L30.06 4.54L28.74 4.54ZM28.01 10.01L28.45 8.60C28.77 7.56 29.06 6.57 29.36 5.49L29.41 5.49C29.71 6.57 30.00 7.56 30.32 8.60L30.76 10.01Z"></path></g><!----><g data-v-423bf9ae="" id="8bc0c47c-bdd1-410f-91f0-eb047489356a" transform="matrix(1.1111111111111112,0,0,1.1111111111111112,0.7183312310112839,0.44444444444444287)" stroke="none" fill="#DDBA2E"><path d="M15.953 40.775h36.055c1.245 0 2.253-1.158 2.253-2.588 0-1.43-1.008-2.589-2.253-2.589H15.953c-1.244 0-2.252 1.159-2.252 2.589-.001 1.43 1.007 2.588 2.252 2.588zM15.953 28.479h36.055c1.245 0 2.253-1.159 2.253-2.589s-1.008-2.589-2.253-2.589H15.953c-1.244 0-2.252 1.159-2.252 2.589-.001 1.43 1.007 2.589 2.252 2.589zM15.953 53.075h36.055c1.245 0 2.253-1.161 2.253-2.591s-1.008-2.588-2.253-2.588H15.953c-1.244 0-2.252 1.158-2.252 2.588s1.007 2.591 2.252 2.591z"></path><path d="M87.384 18.363a7.716 7.716 0 0 0-.119-5.944c-.044-.101-.111-.186-.159-.285 2.015-1.098 3.401-3.212 3.401-5.662A6.479 6.479 0 0 0 84.036 0a6.48 6.48 0 0 0-6.476 6.473c0 .575.1 1.123.241 1.655a7.737 7.737 0 0 0-4.883 4.567l-5.713 14.603V11.974 6.797c0-1.425-1.08-2.59-2.401-2.59H2.402C1.079 4.206 0 5.372 0 6.796V97.41C0 98.835 1.079 100 2.401 100H64.803c1.321 0 2.401-1.165 2.401-2.59V69.933l7.11-18.167c.354-.013.71-.094 1.049-.265 7.571-3.812 13.048-10.164 14.651-16.993 1.226-5.24.141-10.387-3.107-14.931l.477-1.214zm-9.646-3.773a2.604 2.604 0 0 1 2.417-1.646 2.59 2.59 0 0 1 2.407 3.532l-2.664 6.81c-2.521-.069-4.259-1.104-4.761-2.046l2.601-6.65zM59.815 94.821H7.39a2.598 2.598 0 0 1-2.589-2.588v-80.26A2.597 2.597 0 0 1 7.39 9.385h52.425a2.597 2.597 0 0 1 2.59 2.588v27.595l-8.544 21.829c-.4-.708-1.063-1.204-1.854-1.204H15.953c-1.244 0-2.252 1.161-2.252 2.589 0 1.432 1.008 2.588 2.252 2.588h36.055c.119 0 .219-.057.332-.074l-2.725 6.954c-.031.08-.039.161-.067.243H15.953c-1.244 0-2.252 1.156-2.252 2.586s1.008 2.591 2.252 2.591h33.609c.063.174.098.354.174.525.344.787.83 1.474 1.387 2.091l-2.549 6.836c-.5 1.339.18 2.83 1.521 3.329.298.111.604.166.904.166 1.05 0 2.038-.644 2.425-1.687l2.309-6.185c.369.052.74.104 1.119.104a7.709 7.709 0 0 0 5.554-2.358v11.741a2.6 2.6 0 0 1-2.591 2.589zm-.552-18.799a2.593 2.593 0 0 1-2.412 1.647c-1.052 0-1.819-.828-1.887-.848-.652-.704-.899-1.729-.525-2.687L73.11 26.421c1.325.92 2.968 1.586 4.826 1.879L59.263 76.022zm25.711-42.695c-.951 4.046-3.733 7.924-7.723 10.93l7.219-18.441c.93 2.4 1.113 4.911.504 7.511zm-.938-25.56a1.295 1.295 0 1 1 0-2.59 1.295 1.295 0 0 1 0 2.59z"></path></g><!----><g data-v-423bf9ae="" id="06117aa0-9d2e-4ce1-9f1f-97a0ac301592" fill="#DDBA2E" transform="matrix(2.7567371143423776,0,0,2.7567371143423776,120.12226437853236,52.06059831376247)"><path d="M0.66 5.35L0.16 5.33L0.16 5.33Q0.28 4.17 0.36 3.08L0.36 3.08L8.44 3.08L8.44 3.08Q8.36 4.13 8.33 4.53L8.33 4.53L8.33 4.53Q8.29 5.26 8.27 5.32L8.27 5.32L7.77 5.30L7.77 5.30Q7.85 4.34 7.85 4.16L7.85 4.16L7.85 4.16Q7.85 3.88 7.71 3.79L7.71 3.79L7.71 3.79Q7.54 3.69 7.14 3.69L7.14 3.69L5.53 3.69L5.53 3.69Q5.02 3.69 4.90 3.79L4.90 3.79L4.90 3.79Q4.81 3.87 4.80 4.36L4.80 4.36L4.80 11.22L4.80 11.22Q4.80 11.66 4.94 11.76L4.94 11.76L4.94 11.76Q5.10 11.87 5.61 11.87L5.61 11.87L6.17 11.87L6.19 12.41L2.50 12.40L2.50 11.87L2.71 11.87L2.71 11.87Q3.38 11.87 3.53 11.79L3.53 11.79L3.53 11.79Q3.67 11.70 3.67 11.28L3.67 11.28L3.67 4.48L3.67 4.48Q3.67 3.92 3.57 3.80L3.57 3.80L3.57 3.80Q3.47 3.69 3.05 3.69L3.05 3.69L1.58 3.69L1.58 3.69Q1.39 3.69 1.33 3.71L1.33 3.71L1.33 3.71Q1.26 3.72 1.15 3.72L1.15 3.72L1.15 3.72Q1.12 3.72 1.00 3.79L1.00 3.79L1.00 3.79Q0.92 3.84 0.90 3.86L0.90 3.86L0.90 3.86Q0.87 3.88 0.83 3.99L0.83 3.99L0.83 3.99Q0.80 4.05 0.77 4.14L0.77 4.14L0.77 4.14Q0.75 4.21 0.72 4.36L0.72 4.36L0.72 4.36Q0.70 4.59 0.70 4.61L0.70 4.61L0.70 4.61Q0.70 4.80 0.68 4.95L0.68 4.95L0.68 4.95Q0.68 5.02 0.68 5.15L0.68 5.15L0.68 5.15Q0.67 5.29 0.66 5.35L0.66 5.35ZM16.56 7.83L16.56 7.83L16.56 7.83Q16.56 6.62 16.97 5.68L16.97 5.68L16.97 5.68Q17.38 4.72 18.07 4.12L18.07 4.12L18.07 4.12Q18.76 3.51 19.63 3.19L19.63 3.19L19.63 3.19Q20.47 2.88 21.42 2.88L21.42 2.88L21.42 2.88Q22.67 2.88 23.73 3.40L23.73 3.40L23.73 3.40Q24.81 3.93 25.52 5.07L25.52 5.07L25.52 5.07Q26.22 6.17 26.22 7.75L26.22 7.75L26.22 7.75Q26.22 8.70 25.92 9.54L25.92 9.54L25.92 9.54Q25.61 10.38 25.00 11.10L25.00 11.10L25.00 11.10Q24.40 11.81 23.46 12.22L23.46 12.22L23.46 12.22Q22.50 12.63 21.31 12.64L21.31 12.64L21.31 12.64Q20.17 12.64 19.24 12.23L19.24 12.23L19.24 12.23Q18.30 11.83 17.74 11.14L17.74 11.14L17.74 11.14Q17.17 10.45 16.87 9.60L16.87 9.60L16.87 9.60Q16.56 8.72 16.56 7.83ZM17.82 7.38L17.82 7.38L17.82 7.38Q17.82 8.52 18.25 9.60L18.25 9.60L18.25 9.60Q18.66 10.64 19.58 11.33L19.58 11.33L19.58 11.33Q20.49 12.03 21.68 12.04L21.68 12.04L21.68 12.04Q23.06 12.04 23.99 11.01L23.99 11.01L23.99 11.01Q24.94 9.97 24.94 8.10L24.94 8.10L24.94 8.10Q24.94 5.99 23.78 4.72L23.78 4.72L23.78 4.72Q22.63 3.46 21.12 3.45L21.12 3.45L21.12 3.45Q20.60 3.45 20.06 3.65L20.06 3.65L20.06 3.65Q19.52 3.85 19.01 4.25L19.01 4.25L19.01 4.25Q18.46 4.68 18.14 5.48L18.14 5.48L18.14 5.48Q17.82 6.27 17.82 7.38ZM34.38 3.64L34.34 3.08L38.12 3.08L38.12 3.08Q39.44 3.08 40.30 3.19L40.30 3.19L40.30 3.19Q41.13 3.29 41.82 3.69L41.82 3.69L41.82 3.69Q42.77 4.27 43.27 5.24L43.27 5.24L43.27 5.24Q43.76 6.21 43.76 7.39L43.76 7.39L43.76 7.39Q43.76 8.05 43.62 8.65L43.62 8.65L43.62 8.65Q43.46 9.29 43.07 9.98L43.07 9.98L43.07 9.98Q42.64 10.73 42.08 11.21L42.08 11.21L42.08 11.21Q41.45 11.76 40.48 12.08L40.48 12.08L40.48 12.08Q39.48 12.41 38.21 12.41L38.21 12.41L34.59 12.41L34.58 11.87L34.95 11.87L34.95 11.87Q35.47 11.87 35.57 11.79L35.57 11.79L35.57 11.79Q35.68 11.70 35.68 11.25L35.68 11.25L35.68 4.14L35.68 4.14Q35.68 3.77 35.59 3.71L35.59 3.71L35.59 3.71Q35.48 3.64 34.97 3.64L34.97 3.64L34.38 3.64ZM36.82 4.39L36.82 11.22L36.82 11.22Q36.82 11.67 36.98 11.77L36.98 11.77L36.98 11.77Q37.14 11.87 38.01 11.87L38.01 11.87L38.01 11.87Q39.06 11.87 39.85 11.61L39.85 11.61L39.85 11.61Q40.71 11.35 41.15 10.99L41.15 10.99L41.15 10.99Q41.64 10.58 41.94 10.05L41.94 10.05L41.94 10.05Q42.25 9.52 42.38 8.96L42.38 8.96L42.38 8.96Q42.50 8.41 42.50 7.82L42.50 7.82L42.50 7.82Q42.50 7.03 42.23 6.34L42.23 6.34L42.23 6.34Q41.97 5.65 41.44 5.05L41.44 5.05L41.44 5.05Q40.91 4.46 40.00 4.09L40.00 4.09L40.00 4.09Q39.07 3.73 37.91 3.73L37.91 3.73L37.39 3.73L37.39 3.73Q37.03 3.73 36.93 3.85L36.93 3.85L36.93 3.85Q36.82 3.99 36.82 4.39L36.82 4.39ZM52.12 7.83L52.12 7.83L52.12 7.83Q52.12 6.62 52.52 5.68L52.52 5.68L52.52 5.68Q52.94 4.72 53.63 4.12L53.63 4.12L53.63 4.12Q54.32 3.51 55.18 3.19L55.18 3.19L55.18 3.19Q56.02 2.88 56.97 2.88L56.97 2.88L56.97 2.88Q58.23 2.88 59.28 3.40L59.28 3.40L59.28 3.40Q60.36 3.93 61.07 5.07L61.07 5.07L61.07 5.07Q61.77 6.17 61.78 7.75L61.78 7.75L61.78 7.75Q61.78 8.70 61.47 9.54L61.47 9.54L61.47 9.54Q61.16 10.38 60.56 11.10L60.56 11.10L60.56 11.10Q59.95 11.81 59.01 12.22L59.01 12.22L59.01 12.22Q58.05 12.63 56.86 12.64L56.86 12.64L56.86 12.64Q55.73 12.64 54.79 12.23L54.79 12.23L54.79 12.23Q53.85 11.83 53.29 11.14L53.29 11.14L53.29 11.14Q52.72 10.45 52.42 9.60L52.42 9.60L52.42 9.60Q52.12 8.72 52.12 7.83ZM53.38 7.38L53.38 7.38L53.38 7.38Q53.38 8.52 53.81 9.60L53.81 9.60L53.81 9.60Q54.21 10.64 55.14 11.33L55.14 11.33L55.14 11.33Q56.05 12.03 57.24 12.04L57.24 12.04L57.24 12.04Q58.61 12.04 59.55 11.01L59.55 11.01L59.55 11.01Q60.50 9.97 60.50 8.10L60.50 8.10L60.50 8.10Q60.50 5.99 59.34 4.72L59.34 4.72L59.34 4.72Q58.19 3.46 56.68 3.45L56.68 3.45L56.68 3.45Q56.16 3.45 55.61 3.65L55.61 3.65L55.61 3.65Q55.07 3.85 54.56 4.25L54.56 4.25L54.56 4.25Q54.02 4.68 53.70 5.48L53.70 5.48L53.70 5.48Q53.38 6.27 53.38 7.38Z"></path></g></svg>