<svg data-v-423bf9ae="" xmlns="http://www.w3.org/2000/svg" viewBox="0 0 167.41839787803212 60" class="font"><!----><!----><defs data-v-423bf9ae=""><linearGradient data-v-423bf9ae="" gradientTransform="rotate(25)" id="0c1b5686-dab6-4bba-9b5f-bfb87b10ba03" x1="0%" y1="0%" x2="100%" y2="0%"><stop data-v-423bf9ae="" offset="0%" style="stop-color: rgb(8, 199, 214); stop-opacity: 1;"></stop><stop data-v-423bf9ae="" offset="100%" style="stop-color: rgb(2, 2, 62); stop-opacity: 1;"></stop></linearGradient></defs><g data-v-423bf9ae="" id="1f3692b7-7cca-469f-a79e-2cc97d281b7f" fill="url(#0c1b5686-dab6-4bba-9b5f-bfb87b10ba03)" transform="matrix(5.934718302425701,0,0,5.934718302425701,-1.721066455390286,-30.38575655240782)"><path d="M7.91 14.18L5.17 5.57C5.07 5.22 4.76 5.12 4.42 5.12C4.07 5.12 3.72 5.18 3.36 5.32L0.45 13.92C0.36 14.17 0.29 14.43 0.29 14.62C0.29 15.01 0.53 15.18 1.02 15.18C1.33 15.18 1.53 15.12 1.72 15.05C1.65 14.97 1.62 14.85 1.62 14.70C1.62 14.55 1.67 14.38 1.71 14.21L2.35 11.98L5.92 11.98L6.72 14.67C6.80 15.01 7.13 15.18 7.52 15.18C7.92 15.18 8.13 15.04 8.27 14.88C8.11 14.70 7.98 14.41 7.91 14.18ZM2.58 11.24L4.12 5.95L5.70 11.24ZM19.75 7.38C20.43 6.44 19.74 6.05 19.38 6.05C19.04 6.61 18.55 7.22 18.00 7.85C17.30 6.36 16.06 5.17 14.53 5.17C13.75 5.17 13.51 5.52 13.51 6.06C15.23 5.99 16.62 7.13 17.28 8.64C16.00 9.94 14.53 11.17 13.51 11.80C14.21 11.27 14.78 10.60 14.78 9.66C14.78 8.60 14.03 7.67 12.49 7.67C10.53 7.67 9.23 9.06 9.23 10.96C9.23 13.34 10.98 15.23 13.82 15.23C16.55 15.23 18.62 13.31 18.62 10.53C18.62 10.01 18.55 9.48 18.40 8.95C18.93 8.44 19.39 7.91 19.75 7.38ZM17.68 10.61C17.68 13.09 15.90 14.60 13.94 14.60C11.80 14.60 10.64 12.82 10.64 10.86C10.64 9.18 11.49 8.30 12.46 8.30C13.31 8.30 13.72 8.96 13.72 9.79C13.72 10.86 13.01 11.55 11.97 12.29L12.08 12.74C13.75 12.25 15.88 11.10 17.60 9.67C17.65 9.98 17.68 10.29 17.68 10.61ZM24.72 15.20C27.16 15.20 28.50 13.57 28.50 10.16C28.50 6.78 27.16 5.12 24.72 5.12C22.27 5.12 20.94 6.78 20.94 10.16C20.94 13.57 22.27 15.20 24.72 15.20ZM24.72 14.66C23.17 14.66 22.36 13.29 22.36 10.16C22.36 7.04 23.17 5.67 24.72 5.67C26.29 5.67 27.09 7.04 27.09 10.16C27.09 13.29 26.29 14.66 24.72 14.66Z"></path></g><!----><!----></svg>